<svg width="270" height="32" viewBox="0 0 270 32" fill="none" xmlns="http://www.w3.org/2000/svg">
<g clip-path="url(#clip0_2004_803)">
<path d="M26.6808 18.0426L25.2924 17.6381C25.226 17.7649 25.1475 17.8977 25.063 18.0365C24.3628 19.111 22.9805 20.3364 21.2299 21.1815C19.9261 21.8092 18.423 22.2257 16.8415 22.2197C15.9361 22.2197 15.0668 22.1292 14.2399 21.9601C10.2559 21.1633 7.35238 18.622 7.36445 15.5133C7.37652 12.1873 10.7207 9.53733 15.1272 8.98199C15.7007 8.90955 16.2922 8.87333 16.8958 8.87333C18.2601 8.87333 19.5458 9.1993 20.6927 9.69428C22.4131 10.4428 23.8075 11.5957 24.6526 12.6943C24.9363 13.0686 25.1596 13.4308 25.3105 13.7748L29.0893 12.7125L31.5461 12.0183C30.4475 4.76258 25.5822 0.030077 17.1433 -0.000104798C7.39463 -0.0363229 0.0363173 5.99399 9.91588e-05 15.8393C-0.0180099 20.0044 2.43275 31.5157 16.8415 31.6304C22.9141 31.6787 29.7472 28.9623 31.7996 19.5275L26.6808 18.0426Z" fill="#076820"/>
<path d="M40.1782 1.42458H52.4803L61.891 30.4957H49.939L48.1885 24.5438H40.7456L38.9951 30.4957H30.502L40.1782 1.42458ZM46.9691 18.8515L44.7779 10.9681L42.1944 18.8515H46.9691Z" fill="#076820"/>
<path d="M63.1035 1.42458H74.4881V23.2701H84.7318V30.4957H63.1035V1.42458Z" fill="#076820"/>
<path d="M85.3652 16.0024C85.3652 6.85126 92.1984 0.766617 101.784 0.766617C111.37 0.766617 117.853 6.71846 117.853 15.9179C117.853 25.1173 111.02 31.1536 101.434 31.1536C91.8483 31.1536 85.3652 25.2018 85.3652 16.0024ZM105.985 16.6181V15.2176C105.985 10.7085 104.802 8.65009 101.609 8.65009C98.4158 8.65009 97.2327 10.7085 97.2327 15.3082V16.7086C97.2327 21.2178 98.4158 23.2762 101.609 23.2762C104.802 23.2762 105.985 21.2178 105.985 16.6181Z" fill="#076820"/>
<path d="M120.316 1.42458H134.019C144.878 1.42458 146.804 4.70836 146.804 8.95795C146.804 13.2075 143.611 15.5678 139.186 16.4008C144.788 16.8837 146.369 20.3003 147.245 25.5519C147.51 27.3024 147.637 29.4514 147.727 30.5017H136.433C136.433 30.3266 136.391 29.3608 136.301 28.226C135.951 23.6263 135.16 20.2157 132.534 20.1252H131.484V30.5017H120.316V1.42458ZM136.21 11.2337C136.21 8.82515 135.069 7.46697 131.961 7.46697H131.478V15.3022C134.103 15.2116 136.204 14.0768 136.204 11.2276L136.21 11.2337Z" fill="#076820"/>
<path d="M150.607 1.42458H161.992V30.4957H150.607V1.42458Z" fill="#076820"/>
<path d="M172.405 18.6765L163.121 1.42458H175.64L179.667 10.1833L183.741 1.42458H193.375L183.79 18.6765V30.4957H172.405V18.6765Z" fill="#076820"/>
<path d="M198.819 1.42458H211.121L220.532 30.4957H208.58L206.829 24.5438H199.386L197.636 30.4957H189.143L198.819 1.42458ZM205.604 18.8515L203.413 10.9681L200.829 18.8515H205.604Z" fill="#076820"/>
<path d="M221.74 1.42458H233.125V23.2701H243.368V30.4957H221.74V1.42458Z" fill="#076820"/>
<path d="M249.024 18.6765L239.74 1.42458H252.26L256.286 10.1833L260.36 1.42458H269.994L260.409 18.6765V30.4957H249.024V18.6765Z" fill="#076820"/>
</g>
<defs>
<clipPath id="clip0_2004_803">
<rect width="270" height="31.6305" fill="white"/>
</clipPath>
</defs>
</svg>
